<?xml version="1.0" encoding="utf-8" ?><svg xmlns="http://www.w3.org/2000/svg" xmlns:xlink="http://www.w3.org/1999/xlink" width="1286" height="1326" viewBox="0 0 1286 1326"><path fill="#FEFEFE" d="M252.2 145.193C263.138 151.371 278.524 163.61 289.117 171.441L354.273 219.608L395.377 249.616C400.401 253.258 411.078 260.246 414.913 264.056C416.001 273.38 415.733 286.063 415.752 295.643L415.808 343.042L415.795 501.896L415.866 699.875L415.889 766.676C415.863 779.589 416.108 792.865 415.192 805.718C415.021 808.119 414.87 808.194 412.486 810.074C405.63 815.481 398.663 820.866 391.783 826.236L351.926 857.634C292.859 904.228 234.186 951.32 175.913 998.903C149.936 1018.77 124.938 1040.24 98.8599 1060.01C93.2915 1064.23 87.6571 1068.88 81.6185 1072.38C90.6223 1060.9 111.198 1041.91 122.134 1030.18C156.288 994.861 183.152 957.082 206.677 914.168C258.848 818.999 250.821 718.154 251.21 613.074L251.29 302.914L251.239 213.648C251.19 191.734 250.801 166.94 252.2 145.193Z"/><path fill="#FEFEFE" d="M1183.42 286.889C1183.24 289.523 1169.51 302.761 1166.87 305.638C1143.62 330.945 1119.73 356.909 1099.55 384.642C1062.3 435.848 1037.11 485.733 1023.22 547.671C1011.92 598.033 1012.86 636.951 1012.91 687.586L1012.96 779.664L1013 1053.54L1012.91 1150.4C1012.89 1168 1013.29 1188.05 1012.58 1205.47C982.778 1185.83 947.348 1157.99 918.408 1136.31C898.417 1121.86 878.665 1106.8 858.557 1092.47C854.748 1089.75 851.18 1087.12 848.438 1083.27C847.979 1070.65 848.351 1055.77 848.358 1043.01L848.371 969.526L848.434 737.951L848.679 617.464C848.682 605.781 847.982 565.817 849.802 556.064C852.698 552.496 860.539 546.286 864.251 543.226C874.245 534.883 884.408 526.746 894.734 518.818L965.402 462.647L1127.84 331.908C1146.24 317.278 1164.27 300.726 1183.42 286.889Z"/><path fill="#FEFEFE" d="M1011.07 146.883L1011.88 147.534C1013.02 153.223 1012.71 167.273 1012.72 173.86L1012.78 220.165L1012.8 287.197C1012.78 297.191 1013.11 316.44 1011.8 325.382C1007.22 329.611 997.484 336.628 992.16 340.761L953.567 370.935L839.47 462.747L497.003 739.203C495.319 737.827 495.472 736.285 495.466 734.201C495.361 702.291 495.455 670.377 495.447 638.465L495.445 592.791C495.448 582.407 495.206 571.183 496.106 560.905C500.537 556.142 512.655 546.7 518.068 542.29L563.884 505.548L692.349 402.218L895.258 239.862C918.333 221.246 941.556 202.928 964.398 184.039C979.539 171.519 995.183 158.407 1011.07 146.883Z"/><path fill="#FEFEFE" d="M766.297 625.394L767.176 625.476C770.686 630.152 767.424 768.729 768.578 785.689C768.719 787.756 768.505 797.343 768.418 800.091C764 805.579 736.655 826.282 729.712 831.873C698.813 857.127 667.758 882.19 636.55 907.06L384.552 1110.26C341.048 1145.42 295.178 1181.1 252.554 1217.1L251.682 1216.47C250.788 1213.23 251.461 1175.99 251.539 1170.26C252.137 1126.51 250.563 1081.02 252.074 1037.45C255.604 1033.66 268.216 1024.05 272.859 1020.31L324.009 979.682L503.832 835.665L683.042 692.335L738.856 647.023C746.765 640.639 757.926 630.696 766.297 625.394Z"/></svg>